<?xml version="1.0" encoding="UTF-8" standalone="no"?>
<!-- Created with Inkscape (http://www.inkscape.org/) -->

<svg
   xmlns:dc="http://purl.org/dc/elements/1.1/"
   xmlns:cc="http://creativecommons.org/ns#"
   xmlns:rdf="http://www.w3.org/1999/02/22-rdf-syntax-ns#"
   xmlns:svg="http://www.w3.org/2000/svg"
   xmlns="http://www.w3.org/2000/svg"
   xmlns:sodipodi="http://sodipodi.sourceforge.net/DTD/sodipodi-0.dtd"
   xmlns:inkscape="http://www.inkscape.org/namespaces/inkscape"
   width="400"
   height="400"
   id="svg2"
   version="1.1"
   inkscape:version="0.48.4 r9939"
   inkscape:export-filename="D:\Users\Simon\Git\MediaPlayerExample\app\src\main\res\drawable-xhdpi\track_error.png"
   inkscape:export-xdpi="90"
   inkscape:export-ydpi="90"
   sodipodi:docname="New document 1">
  <defs
     id="defs4" />
  <sodipodi:namedview
     id="base"
     pagecolor="#ffffff"
     bordercolor="#666666"
     borderopacity="1.0"
     inkscape:pageopacity="0.0"
     inkscape:pageshadow="2"
     inkscape:zoom="0.88821672"
     inkscape:cx="145.0642"
     inkscape:cy="139.39133"
     inkscape:document-units="px"
     inkscape:current-layer="layer1-4"
     showgrid="false"
     inkscape:showpageshadow="false"
     inkscape:window-width="995"
     inkscape:window-height="715"
     inkscape:window-x="1970"
     inkscape:window-y="50"
     inkscape:window-maximized="0" />
  <metadata
     id="metadata7">
    <rdf:RDF>
      <cc:Work
         rdf:about="">
        <dc:format>image/svg+xml</dc:format>
        <dc:type
           rdf:resource="http://purl.org/dc/dcmitype/StillImage" />
        <dc:title></dc:title>
      </cc:Work>
    </rdf:RDF>
  </metadata>
  <g
     inkscape:label="Layer 1"
     inkscape:groupmode="layer"
     id="layer1"
     transform="translate(0,-652.36218)">
    <g
       id="layer1-4"
       transform="matrix(11.473113,0,0,11.473113,-5686.1167,-4843.6865)">
      <path
         style="fill:#000000;fill-opacity:0.49803922;fill-rule:nonzero;stroke:none;display:inline;enable-background:new"
         id="path5106"
         d="m 513.03601,483.51623 c -6.9168,0 -12.5312,4.7082 -12.5312,11.625 l 0,4.375 c -0.7608,0.5192 -0.5,4.1346 -0.5,5.6562 0,2.3639 1.6783,3.6058 3,3.9063 l 0,-10.5313 -0.5,0 0.062,-4.0312 c -10e-5,-4.7312 5.4133,-9 10.4687,-9 5.0553,0 10.4688,4.2688 10.4688,9 l 0.031,4.0312 -0.5312,0 0,10.5313 c 1.3217,-0.3005 3.0625,-1.5424 3.0625,-3.9063 0,-1.5216 0.2608,-5.137 -0.5,-5.6562 l 0,-4.375 c 0,-6.9168 -5.6145,-11.625 -12.5313,-11.625 z m -7.9062,14.9062 c -0.6154,0 -1.125,0.4066 -1.125,0.9375 l 0,9.125 c 0,0.5309 0.5096,0.9375 1.125,0.9375 l 2.75,0 c 0.6155,0 1.125,-0.4066 1.125,-0.9375 l 0,-9.125 c 0,-0.5309 -0.5095,-0.9375 -1.125,-0.9375 l -2.75,0 z m 13,0 c -0.6154,0 -1.125,0.4066 -1.125,0.9375 l 0,9.125 c 0,0.5309 0.5096,0.9375 1.125,0.9375 l 2.75,0 c 0.6155,0 1.125,-0.4066 1.125,-0.9375 l 0,-9.125 c 0,-0.5309 -0.5095,-0.9375 -1.125,-0.9375 l -2.75,0 z"
         inkscape:connector-curvature="0" />
    </g>
  </g>
</svg>
